<svg xmlns="http://www.w3.org/2000/svg" version="1.1" xmlns:xlink="http://www.w3.org/1999/xlink" viewBox="0 0 200 200"><rect width="200" height="200" fill="url('#gradient')"></rect><defs><linearGradient id="gradient" gradientTransform="rotate(87 0.5 0.5)"><stop offset="0%" stop-color="#2a2b1f"></stop><stop offset="100%" stop-color="#000000"></stop></linearGradient></defs><g><g fill="#1b3855" transform="matrix(1.9840688912809472,0,0,1.9840688912809472,10.060125308779774,114.68445317008651)" stroke="#0e5278" stroke-width="0.2"><path d="M3.77-14.22L6.59-3.87L9.42-14.22L13.25-14.22L8.47 0L4.72 0L-0.03-14.22L3.77-14.22ZM17.61-15L17.61 0L14.31 0L14.31-15L17.61-15ZM28.88 0L25.59 0Q25.41-0.32 25.27-0.95L25.27-0.95Q24.37 0.20 22.73 0.20L22.73 0.20Q21.24 0.20 20.20-0.71Q19.15-1.61 19.15-2.98L19.15-2.98Q19.15-4.70 20.42-5.58Q21.69-6.46 24.11-6.46L24.11-6.46L25.13-6.46L25.13-7.01Q25.13-8.47 23.87-8.47L23.87-8.47Q22.70-8.47 22.70-7.31L22.70-7.31L19.40-7.31Q19.40-8.85 20.71-9.80Q22.01-10.76 24.03-10.76Q26.05-10.76 27.23-9.78Q28.40-8.79 28.43-7.07L28.43-7.07L28.43-2.39Q28.45-0.94 28.88-0.17L28.88-0.17L28.88 0ZM23.53-2.15L23.53-2.15Q24.14-2.15 24.55-2.41Q24.95-2.68 25.13-3.01L25.13-3.01L25.13-4.70L24.17-4.70Q22.45-4.70 22.45-3.15L22.45-3.15Q22.45-2.71 22.75-2.43Q23.06-2.15 23.53-2.15ZM30.19-10.57L33.27-10.57L33.38-9.33Q34.47-10.76 36.40-10.76L36.40-10.76Q38.05-10.76 38.86-9.78Q39.68-8.79 39.71-6.81L39.71-6.81L39.71 0L36.41 0L36.41-6.67Q36.41-7.47 36.08-7.85Q35.76-8.22 34.91-8.22L34.91-8.22Q33.95-8.22 33.48-7.46L33.48-7.46L33.48 0L30.19 0L30.19-10.57ZM47.29-4.82L45.11-4.82L45.11 0L41.68 0L41.68-14.22L47.35-14.22Q48.98-14.22 50.24-13.62Q51.49-13.02 52.18-11.91Q52.87-10.80 52.87-9.39L52.87-9.39Q52.87-7.31 51.38-6.07Q49.89-4.82 47.29-4.82L47.29-4.82ZM45.11-11.57L45.11-7.47L47.35-7.47Q48.35-7.47 48.87-7.97Q49.39-8.47 49.39-9.38L49.39-9.38Q49.39-10.37 48.86-10.97Q48.32-11.56 47.39-11.57L47.39-11.57L45.11-11.57ZM63.68 0L60.39 0Q60.21-0.32 60.08-0.95L60.08-0.95Q59.17 0.20 57.54 0.20L57.54 0.20Q56.04 0.20 55-0.71Q53.96-1.61 53.96-2.98L53.96-2.98Q53.96-4.70 55.22-5.58Q56.49-6.46 58.92-6.46L58.92-6.46L59.93-6.46L59.93-7.01Q59.93-8.47 58.67-8.47L58.67-8.47Q57.50-8.47 57.50-7.31L57.50-7.31L54.21-7.31Q54.21-8.85 55.51-9.80Q56.82-10.76 58.84-10.76Q60.86-10.76 62.03-9.78Q63.20-8.79 63.23-7.07L63.23-7.07L63.23-2.39Q63.25-0.94 63.68-0.17L63.68-0.17L63.68 0ZM58.33-2.15L58.33-2.15Q58.95-2.15 59.35-2.41Q59.76-2.68 59.93-3.01L59.93-3.01L59.93-4.70L58.97-4.70Q57.26-4.70 57.26-3.15L57.26-3.15Q57.26-2.71 57.56-2.43Q57.86-2.15 58.33-2.15ZM64.99-10.57L68.08-10.57L68.18-9.33Q69.28-10.76 71.20-10.76L71.20-10.76Q72.85-10.76 73.67-9.78Q74.48-8.79 74.51-6.81L74.51-6.81L74.51 0L71.21 0L71.21-6.67Q71.21-7.47 70.89-7.85Q70.57-8.22 69.72-8.22L69.72-8.22Q68.75-8.22 68.28-7.46L68.28-7.46L68.28 0L64.99 0L64.99-10.57ZM81.45 0.20L81.45 0.20Q79.01 0.20 77.51-1.25Q76.01-2.71 76.01-5.03L76.01-5.03L76.01-5.30Q76.01-6.92 76.61-8.16Q77.21-9.40 78.36-10.08Q79.51-10.76 81.09-10.76L81.09-10.76Q83.32-10.76 84.61-9.38Q85.90-8.00 85.90-5.53L85.90-5.53L85.90-4.25L79.36-4.25Q79.53-3.36 80.13-2.85Q80.72-2.34 81.67-2.34L81.67-2.34Q83.23-2.34 84.11-3.44L84.11-3.44L85.62-1.66Q85-0.81 83.87-0.31Q82.74 0.20 81.45 0.20ZM81.07-8.22L81.07-8.22Q79.63-8.22 79.36-6.31L79.36-6.31L82.68-6.31L82.68-6.56Q82.70-7.35 82.28-7.79Q81.86-8.22 81.07-8.22ZM90.69-15L90.69 0L87.39 0L87.39-15L90.69-15Z"></path></g></g></svg>